<svg width="42" height="42" xmlns="http://www.w3.org/2000/svg" xmlns:xlink="http://www.w3.org/1999/xlink" overflow="hidden"><defs><clipPath id="clip0"><rect x="113" y="892" width="42" height="42"/></clipPath></defs><g clip-path="url(#clip0)" transform="translate(-113 -892)"><path d="M134 896.375C124.812 896.375 117.375 903.812 117.375 913 117.375 922.188 124.812 929.625 134 929.625 143.188 929.625 150.625 922.188 150.625 913 150.625 903.812 143.188 896.375 134 896.375ZM133.125 900.75C134.35 900.75 135.312 901.713 135.312 902.938 135.312 904.162 134.35 905.125 133.125 905.125 131.9 905.125 130.938 904.162 130.938 902.938 130.938 901.713 131.9 900.75 133.125 900.75ZM138.375 925.25 129.625 925.25 129.625 922.625 132.688 922.625 132.688 909.5 130.062 909.5 130.062 906.875 135.312 906.875 135.312 909.5 135.312 922.625 138.375 922.625 138.375 925.25Z" fill="#2F5597"/></g></svg>