<svg width="42" height="42" xmlns="http://www.w3.org/2000/svg" xmlns:xlink="http://www.w3.org/1999/xlink" overflow="hidden"><defs><clipPath id="clip0"><rect x="113" y="829" width="42" height="42"/></clipPath></defs><g clip-path="url(#clip0)" transform="translate(-113 -829)"><path d="M152.637 864 135.531 834.25C134.875 833.069 133.169 833.069 132.512 834.25L115.363 864C114.706 865.181 115.537 866.625 116.894 866.625L134 866.625 151.106 866.625C152.462 866.625 153.294 865.181 152.637 864ZM132.688 841.25 135.312 841.25 135.312 856.562 132.688 856.562 132.688 841.25ZM134 862.688C132.775 862.688 131.812 861.725 131.812 860.5 131.812 859.275 132.775 858.312 134 858.312 135.225 858.312 136.188 859.275 136.188 860.5 136.188 861.725 135.225 862.688 134 862.688Z" fill="#C00000"/></g></svg>